<svg width="89" height="67" viewBox="0 0 89 67" fill="none" xmlns="http://www.w3.org/2000/svg">
<g clip-path="url(#clip0_2_120)">
<path d="M40.9312 39.4223C41.3813 41.0724 40.659 42.3429 39.8416 43.427C38.6846 44.9198 37.3551 46.3049 35.9306 47.5036C29.2238 52.8537 21.476 54.8579 13.0029 53.9816C10.8494 53.7511 8.69337 53.2085 6.30414 52.7461C6.77462 54.9735 8.56574 56.6429 9.17692 58.9158C8.16293 58.8468 7.70531 58.1798 7.31106 57.6372C5.70239 55.4044 4.10893 53.1246 2.57757 50.8131C1.85118 49.6959 1.95504 49.0552 3.07289 48.4834C5.38588 47.2612 7.84599 46.8647 10.3911 47.3258C10.4849 47.3561 10.58 47.5425 10.7537 47.8063C9.58401 49.6582 7.15666 48.3534 5.65614 49.7868C8.64883 51.586 11.9266 52.0249 15.2017 52.1517C18.6328 52.2772 22.0143 52.0753 25.2957 51.0629C28.515 50.0823 31.3704 48.465 34.1611 46.5675C36.9836 44.7321 39.1621 42.325 40.9312 39.4223Z" fill="white"/>
</g>
<path d="M29.6176 2.66722C29.1377 2.81386 28.7816 2.98759 28.4181 3.23093C27.5667 3.83122 26.944 4.93418 27.2601 6.34695C27.4683 7.31201 28.1558 8.00366 29.0733 8.38163C29.4346 8.56038 30.2437 8.8988 30.3976 9.30914C30.5831 9.82134 30.2087 10.3028 29.9112 10.4546C29.3272 10.7874 28.6376 10.5178 27.9642 10.63C27.5487 10.699 27.2791 10.8536 27.2066 11.1416C27.1641 11.2779 27.1209 11.5549 27.313 11.8707C27.7227 12.3924 28.643 12.2076 29.2168 12.2398C30.2537 12.1517 31.0392 11.643 31.4429 11.1505C31.7008 10.8397 31.9784 10.2073 32.0612 9.82184C32.2537 8.92707 31.7861 8.01921 31.2408 7.58182C30.4471 6.96346 28.9207 6.88749 28.7944 5.4102C28.7496 4.89872 29.3739 4.31678 30.0817 4.27857C30.5485 4.25724 30.7926 4.74744 30.9473 5.01708C31.1239 5.34535 31.3021 5.92716 31.6487 5.97767C32.1903 6.04866 32.6188 5.31947 32.5638 4.90545C32.5631 4.77867 32.3695 4.20932 32.2383 3.98438C31.9457 2.88377 30.3658 2.37985 29.6176 2.66722ZM34.2265 7.61408C34.7373 7.71 35.3879 7.14491 36.4497 7.08759C36.7655 7.16302 37.1628 7.93678 36.765 8.37359C36.513 8.62864 35.3243 8.41925 34.6201 8.55639C34.2171 8.64073 33.6991 8.8819 33.4837 9.05634C33.1452 9.33045 32.7319 9.77972 32.8075 10.5338C32.8156 10.8584 33.0634 11.18 33.2906 11.4292C33.8344 12.1479 34.4346 12.4644 35.2224 12.871C35.4489 12.9933 36.0095 13.1508 36.2506 13.1339C36.5891 13.1272 37.0038 12.6641 37.1306 12.3958C37.4324 11.6674 37.6521 10.9162 37.8901 10.1248C38.0761 9.42641 38.3904 8.44588 38.3309 7.53869C38.2956 6.80297 37.8924 6.0849 37.4102 5.85121C36.5535 5.56409 35.8405 5.78478 34.9165 6.13813C34.4505 6.28623 33.8936 6.49516 33.9047 7.05941C33.9201 7.31442 33.9722 7.48881 34.2265 7.61408ZM35.5378 9.73678C35.8038 9.75066 36.3402 9.73665 36.5051 9.90883C36.4539 10.3961 36.3097 11.3664 35.8663 11.4324C35.2083 11.2647 34.2087 10.864 34.2796 10.055C34.5178 9.79849 35.0058 9.70902 35.5378 9.73678ZM41.0907 11.2213C41.0664 10.5149 40.9453 9.39012 40.8499 8.69032C40.803 8.33345 40.7428 7.56696 40.5837 7.33909C40.3015 6.94342 39.5834 7.0791 39.3284 7.362C39.264 7.43969 39.0925 7.73137 39.1893 8.14978C39.1968 8.88257 39.7525 10.8273 39.9411 12.1141C40.0159 12.7413 40.0453 13.2653 40.4667 13.4081C41.1548 13.6916 41.7724 12.7711 42.1175 12.3006C43.2553 10.7168 43.7132 9.97665 44.2897 9.17855C44.604 8.73296 45.0444 8.42732 44.9014 7.77882C44.8039 7.23363 44.2462 7.04832 43.8117 7.29828C43.3032 7.58268 43.0783 8.24882 42.6937 8.82779C42.1596 9.48959 41.646 10.4914 41.0907 11.2213ZM46.6292 11.9583C46.9751 11.8821 47.5635 11.775 48.0083 11.695C48.6678 11.5813 49.0085 11.4201 49.6585 11.2632C50.0476 11.1774 50.3619 10.7318 50.3735 10.3529C50.3999 10.1023 50.2635 9.52487 50.1836 9.34755C49.7327 7.87837 48.6334 7.3546 47.2192 7.68458C46.6447 7.79312 45.9611 8.27027 45.5611 8.8617C45.0511 9.4275 44.8058 10.2886 44.9445 11.5138C45.2004 12.695 45.52 13.1368 46.5995 13.7148C47.27 14.1654 48.6535 14.1278 49.4178 13.6873C49.675 13.5172 49.7899 13.0929 49.5173 12.7405C49.0219 12.3646 48.553 13.0755 47.6406 12.7826C47.0412 12.5929 46.6923 12.4295 46.6292 11.9583ZM46.9058 9.32681C47.8576 8.70892 48.6872 8.85242 48.9379 9.94864C48.8434 10.178 48.4148 10.3723 48.0872 10.4082C47.5897 10.4545 46.7111 10.6437 46.4649 10.5756C46.3798 10.3132 46.5131 9.58116 46.9058 9.32681ZM56.9131 6.47927C56.3174 6.65596 56.3022 7.7383 56.1426 8.45353C55.8035 9.93823 55.6213 11.5379 55.1606 13.1084C54.9834 13.7232 54.6223 14.8818 55.3346 15.0693C55.7047 15.1645 56.2733 14.8442 56.4586 14.554C56.7297 14.1179 56.701 13.1858 56.846 12.6098C57.1052 11.4828 57.3614 9.84858 57.6419 8.65335C57.77 8.10373 58.1751 7.32984 58.0461 6.95027C57.9024 6.44247 57.2619 6.37515 56.9131 6.47927ZM62.8218 7.19883C60.2886 7.32674 59.3927 9.5553 59.0281 11.4174C58.7622 12.2059 58.5053 13.9808 59.3811 14.6218C59.9696 15.0497 60.8248 15.6182 62.0068 15.4891C65.1959 15.1485 66.0232 10.759 65.4082 9.24439C65.0863 8.42224 64.2376 7.1224 62.8218 7.19883ZM61.131 9.89285C61.4269 9.48757 62.0959 8.88217 62.6418 8.9114C63.3548 8.95819 64.0028 10.0258 64.0183 10.5482C64.061 11.7493 63.3094 13.81 61.9992 13.9539C61.4863 14.0126 60.6692 13.617 60.4932 13.148C60.2527 12.4893 60.5221 10.7298 61.131 9.89285ZM74.3888 8.07672C73.6656 8.1274 73.4868 8.48869 73.0743 9.06473C72.4274 9.99622 71.9388 10.7613 71.3388 11.7822C70.993 12.3934 70.6868 12.8962 70.3146 13.4905C70.0897 13.8892 69.5395 14.4367 69.5132 14.9548C69.4935 15.5439 70.0409 15.8267 70.6535 15.6236C71.3232 15.4125 71.8008 14.3506 72.1422 13.7811C72.7225 12.8145 73.3466 11.6976 74.0668 10.6049C74.384 10.1315 75.2896 9.01602 75.1656 8.45399C75.1018 8.12351 74.8292 8.03855 74.3888 8.07672ZM69.2658 7.66497C68.5733 7.69072 67.7732 8.07117 67.4911 8.47791C67.0435 9.12064 66.985 10.48 67.5816 10.965C69.353 12.4604 71.5951 10.9504 71.3413 9.34713C71.2254 8.57479 70.1994 7.62232 69.2658 7.66497ZM69.837 9.86472C69.6371 10.8291 68.0753 9.74995 69.0674 9.15037C69.5401 9.07335 69.9395 9.42503 69.837 9.86472ZM75.23 12.529C74.4262 12.5431 73.4164 13.0423 73.0597 13.6242C72.5315 14.4978 72.6643 15.7787 73.3187 16.1149C73.9329 16.4328 75.0438 16.3103 75.619 16.061C76.0909 15.8573 76.6953 15.3296 76.8228 14.9206C77.2359 13.669 75.9643 12.5077 75.23 12.529ZM75.3791 14.4592C75.3264 14.9604 74.856 15.1503 74.428 14.9364C73.4943 14.4441 75.5057 13.3886 75.3791 14.4592ZM23.6012 25.5155C24.482 25.4392 25.1929 25.6406 25.9542 25.2279C26.7302 24.9434 27.6013 24.2889 27.9984 23.7253C28.6563 22.8232 28.5975 21.5078 28.0874 20.7363C27.2723 19.6511 26.283 19.4204 24.898 19.2045C24.3242 19.1723 23.4632 19.1944 23.154 19.725C22.779 20.8822 22.4356 22.4086 22.2247 23.6112C22.0805 24.5814 21.9524 25.3985 21.8148 26.4398C21.738 27.0371 21.4809 27.7421 21.9675 27.934C22.7252 28.2248 23.1589 27.5806 23.3032 26.8778C23.4101 26.3964 23.4503 25.8797 23.6012 25.5155ZM26.6661 23.0081C26.1489 23.911 24.8541 24.3099 23.6889 24.1452C23.7108 23.4014 23.9993 22.2633 24.2491 21.3605C24.4278 20.7317 24.3853 20.6005 25.0301 20.6261C26.3506 20.6523 27.4082 21.7066 26.6661 23.0081ZM30.9434 24.3868C31.2893 24.3105 31.8777 24.2034 32.3225 24.1235C32.982 24.0098 33.3227 23.8485 33.9726 23.6916C34.3617 23.6058 34.676 23.1602 34.6877 22.7814C34.7141 22.5308 34.5777 21.9533 34.4978 21.776C34.0469 20.3068 32.9476 19.7831 31.5333 20.113C30.9589 20.2216 30.2752 20.6987 29.8752 21.2902C29.3653 21.856 29.1199 22.717 29.2586 23.9422C29.5146 25.1235 29.8341 25.5653 30.9136 26.1433C31.5842 26.5939 32.9677 26.5563 33.7319 26.1157C33.9891 25.9457 34.1041 25.5214 33.8314 25.169C33.336 24.7931 32.8671 25.504 31.9548 25.211C31.3553 25.0213 31.0065 24.858 30.9434 24.3868ZM31.22 21.7553C32.1718 21.1374 33.0013 21.2809 33.2521 22.3771C33.1576 22.6065 32.729 22.8007 32.4014 22.8367C31.9038 22.8829 31.0253 23.0721 30.779 23.004C30.694 22.7417 30.8272 22.0096 31.22 21.7553ZM37.5574 20.4224C37.4467 20.27 37.2327 20.1631 37.0224 20.155C36.2676 20.1039 36.2428 20.608 36.0092 21.6252C35.7654 22.7398 35.526 24.6151 35.3086 25.7465C35.2361 26.0345 35.1467 26.3489 35.1848 26.5218C35.2369 26.6962 35.5117 26.894 35.7191 26.9299C36.2453 27.0134 36.5127 27.0133 36.7017 26.5546C36.9303 25.9874 37.0817 24.4126 37.1923 23.7626C37.2171 23.5259 38.2312 22.9849 38.8197 22.8778C39.0651 22.8192 39.6799 22.7289 39.9796 22.69C40.2654 22.6497 40.8142 22.3836 40.7892 21.8179C40.7614 21.5475 40.4462 21.3314 40.1568 21.2728C39.6628 21.1505 39.0686 21.3133 38.678 21.413C38.3153 21.5156 37.7951 21.9114 37.4587 21.7635C37.5348 21.3069 37.6608 20.9119 37.5574 20.4224ZM46.7699 24.0513C46.7149 23.6372 47.4364 21.7282 46.9109 21.2366C46.7709 21.0952 46.4521 21.0476 46.2902 21.115C45.6453 21.357 45.5986 22.07 45.4741 22.986C45.4038 23.3868 45.3021 23.9533 45.1835 24.5462C45.0495 25.1515 44.9682 25.7905 44.8767 26.2595C44.761 26.8245 44.6372 27.3323 44.9121 27.5301C45.055 27.6437 45.5298 27.6795 45.7658 27.5776C46.031 27.4647 46.2699 27.0675 46.4977 26.641C46.8889 25.8656 47.3204 25.3761 47.7776 24.7766C48.023 24.4504 48.2399 23.9946 48.6509 23.9674C48.8372 24.6064 48.4709 25.4125 48.2915 26.182C48.219 26.47 48.1143 26.7968 48.1231 26.9808C48.1694 27.7458 49.0502 27.6694 49.5103 27.3096C50.1075 26.8515 50.6511 25.9654 51.0943 25.3645C51.2459 25.127 51.4394 24.894 51.7185 24.7826C51.7575 25.3497 51.5795 25.8378 51.4586 26.3178C51.3547 26.7714 51.1591 27.4266 51.2039 27.938C51.2817 28.8049 52.3061 28.7014 52.6043 28.1415C52.7618 27.8484 52.8657 27.1273 52.9529 26.7001C53.0459 26.2172 53.1264 25.7188 53.2304 25.2652C53.39 24.55 53.9005 22.7736 53.3142 22.4586C52.607 22.0887 52.0121 22.9271 51.6773 23.3001C51.4699 23.5317 51.1717 23.8241 50.9629 24.0697C50.7541 24.3152 50.5094 24.5006 50.0969 24.8092C50.2234 23.4711 50.2378 21.727 48.8551 22.1589C48.3165 22.3275 47.7964 22.9908 47.4447 23.3902C47.2542 23.5954 46.9333 23.9699 46.7699 24.0513ZM57.002 22.4521C56.5491 22.4748 56.3103 22.6046 55.9498 22.8201C55.3768 23.1822 55.2911 23.328 54.9181 23.7956C54.2104 24.6362 53.889 26.2213 54.5201 27.3153C54.8799 27.7754 55.6407 28.3058 56.3434 28.4501C57.1825 28.6368 57.8479 28.4674 58.4135 28.175C59.4027 27.6032 60.1559 26.5984 60.1183 25.4824C60.2499 23.6944 59.0589 22.3022 57.002 22.4521ZM55.6901 25.9601C55.6431 25.0683 56.4475 23.8437 57.214 23.7835C58.2076 23.7049 58.9333 24.837 58.5597 25.9802C58.3686 26.5936 57.7143 27.0597 57.2695 27.1397C56.3257 27.2798 55.7298 26.6541 55.6901 25.9601ZM62.7118 25.8254C62.6259 24.9013 63.2962 23.2121 62.1604 23.3039C61.5067 23.3619 61.4446 24.3549 61.3333 25.1456C61.1877 26.1297 60.9592 26.9644 60.7593 27.9288C60.5696 28.7957 60.3074 29.6832 61.3318 29.5797C61.7151 29.5496 62.3019 28.3866 62.5825 27.9937C63.0733 27.3415 62.9744 27.3451 63.7672 26.4994C64.0866 26.1388 64.4207 25.639 64.8581 25.6286C64.8758 26.264 64.7652 26.6465 64.6115 27.3061C64.4423 27.9781 64.2951 28.7087 64.2652 29.3953C64.5327 29.9302 65.5029 29.8069 65.7337 29.3526C65.8055 29.2053 65.7849 28.8653 65.8112 28.6146C65.932 27.5997 66.4469 26.049 66.4643 25.0795C66.4694 24.6296 66.3008 24.091 66.1439 23.976C65.639 23.5569 65.0565 23.8758 64.6666 24.1023C64.1552 24.4145 63.7185 24.8191 63.3639 25.2464C63.1859 25.467 62.9873 25.615 62.7118 25.8254ZM71.0865 24.0872C71.0329 23.1244 71.323 22.7748 71.498 22.0471C71.6746 21.5729 71.7961 21.2197 71.0956 21.1883C69.9898 21.1284 70.0046 22.059 69.7944 22.8534C69.7051 23.1678 69.5476 23.9959 69.2934 24.1381C69.0545 24.2678 68.0953 24.1529 67.7956 24.1918C67.5054 24.2739 67.2394 24.5275 67.1698 24.7877C67.0753 25.0171 67.1274 25.4589 67.4037 25.6428C67.787 25.8802 68.807 25.551 69.0753 25.9452C68.9347 26.7469 68.8535 27.3859 68.7143 27.9062C68.6741 28.1554 68.3958 29.196 68.3277 29.4422C68.2764 29.662 67.8442 30.8273 67.9044 31.0588C67.9813 31.264 68.4137 31.4361 68.7244 31.4265C69.4308 31.4023 69.6768 29.8655 69.824 29.4024C69.8951 29.1283 70.147 28.0709 70.2041 27.7953C70.281 27.4656 70.5438 25.9025 70.8318 25.7075C71.1058 25.5111 72.2373 25.7285 72.6923 25.5511C73.0008 25.4287 73.2103 25.0425 73.1663 24.6578C73.0958 23.9887 71.387 24.4426 71.0865 24.0872ZM75.976 25.0094C75.8353 25.0087 76.137 24.0128 76.2681 23.4353C76.3523 23.0359 76.6827 22.4372 76.465 21.9638C76.3492 21.7264 75.9864 21.5616 75.6589 21.5975C75.0177 21.6709 74.8984 22.9394 74.7198 23.8356C74.5455 24.6901 74.3697 25.291 74.1654 26.2972C73.8447 27.7416 73.6257 28.352 73.3196 29.6572C73.1387 30.4406 73.0722 31.2078 73.676 31.3557C74.5458 31.5175 74.6176 30.8353 74.7618 30.1325C75.0306 29.0487 75.0715 28.3914 75.3982 27.4262C75.5601 27.0913 75.7901 26.7776 76.0642 26.5812C76.3103 26.3819 76.6401 26.1913 77.0995 26.2396C77.3143 26.4733 77.0918 28.0547 77.0706 28.3903C76.9001 29.8787 76.6306 31.1032 76.7574 31.3699C76.8842 31.6366 77.4837 31.8263 77.8236 31.5383C78.2083 31.2268 78.2646 30.2895 78.3429 29.4109C78.4307 28.5755 78.599 27.5093 78.629 26.8226C78.6743 25.8561 78.4997 24.8382 77.9002 24.6485C77.0963 24.3951 76.7029 25.0576 75.976 25.0094Z" fill="white"/>
<defs>
<clipPath id="clip0_2_120">
<rect width="28.3944" height="34.4457" fill="white" transform="translate(41.518 39.6123) rotate(107.943)"/>
</clipPath>
</defs>
</svg>
