<svg width="96" height="73" viewBox="0 0 96 73" fill="none" xmlns="http://www.w3.org/2000/svg">
<g clip-path="url(#clip0_2_237)">
<path d="M52.5879 27.2035C52.1377 25.5533 52.8601 24.2828 53.6775 23.1988C54.8345 21.7059 56.1639 20.3208 57.5884 19.1221C64.2953 13.772 72.0431 11.7678 80.5162 12.6442C82.6696 12.8747 84.8257 13.4172 87.2149 13.8797C86.7444 11.6523 84.9533 9.98288 84.3421 7.70995C85.3561 7.77893 85.8137 8.44588 86.208 8.98856C87.8166 11.2214 89.4101 13.5011 90.9415 15.8127C91.6679 16.9298 91.564 17.5705 90.4462 18.1423C88.1332 19.3646 85.6731 19.761 83.1279 19.3C83.0341 19.2696 82.939 19.0832 82.7654 18.8194C83.935 16.9676 86.3624 18.2724 87.8629 16.8389C84.8702 15.0398 81.5925 14.6008 78.3173 14.474C74.8863 14.3486 71.5047 14.5504 68.2233 15.5628C65.0041 16.5435 62.1487 18.1607 59.3579 20.0582C56.5355 21.8936 54.3569 24.3007 52.5879 27.2035Z" fill="black"/>
</g>
<path d="M19.417 40.896C18.6564 40.9005 17.9353 41.064 17.3697 41.624C17.1484 41.8541 17.0144 42.4594 17.0042 42.8244C16.9845 43.4135 17.521 43.9345 17.9578 44.3323C18.3184 44.6517 19.214 45.2386 19.0675 45.8285C18.1121 46.8824 17.6833 45.7393 16.8977 45.9805C16.7527 46.0216 16.5695 46.1572 16.5285 46.2795C16.3285 46.9765 16.5044 47.178 17.6601 47.5669C18.1496 47.731 18.9271 47.7001 19.3448 47.4765C19.9258 47.1716 20.4328 46.6336 20.5412 45.8708C20.6773 44.8434 19.8616 44.1664 19.3376 43.6608C19.2225 43.5502 18.5365 43.1121 18.6054 42.7252C18.68 42.2826 19.1388 42.2041 19.8826 42.4934C20.1479 42.648 20.7371 43.2026 21.039 43.0091C21.187 42.9402 21.5226 42.6939 21.5189 42.3275C21.5144 41.8344 21.008 41.4292 20.4745 41.1479C20.2077 41.0073 19.4881 40.8894 19.417 40.896ZM24.7855 41.4602C24.3327 41.483 24.0938 41.6128 23.7333 41.8283C23.1603 42.1904 23.0746 42.3362 22.7017 42.8038C21.9939 43.6444 21.6725 45.2295 22.3036 46.3235C22.6635 46.7836 23.4242 47.314 24.127 47.4583C24.966 47.645 25.6314 47.4756 26.1971 47.1831C27.1863 46.6114 27.9394 45.6066 27.9019 44.4906C28.0335 42.7026 26.8425 41.3104 24.7855 41.4602ZM23.4737 44.9683C23.4266 44.0765 24.231 42.8519 24.9975 42.7917C25.9912 42.7131 26.7168 43.8452 26.3433 44.9884C26.1521 45.6018 25.4978 46.0679 25.053 46.1479C24.1092 46.288 23.5133 45.6623 23.4737 44.9683ZM30.8733 38.6934C29.8957 38.8863 29.8308 40.442 29.6118 41.5874C29.297 43.2436 28.9997 44.4652 28.6248 46.1573C28.4849 46.8183 27.863 48.583 28.3086 48.8973C28.6861 49.1903 29.3272 48.8495 29.5411 48.4215C29.6832 48.1408 29.9381 47.0555 30.0223 46.6561C30.4184 44.6284 30.8299 42.8557 31.207 40.7415C31.363 39.9274 31.8786 38.5035 30.8733 38.6934ZM33.2029 43.0488C31.9974 42.8658 31.7777 43.8844 31.6093 44.9507C31.5515 45.3669 31.4366 46.3261 31.4426 46.8054C31.4596 47.8489 32.0891 48.4218 32.822 48.6818C34.8336 49.2311 35.7311 48.326 36.342 46.7995C36.5691 46.2462 36.7185 45.6284 36.7909 45.0729C36.8751 44.4061 36.9702 43.2336 36.5913 42.9545C36.3568 42.775 35.6599 42.8425 35.5046 43.2485C35.3449 43.6963 35.3239 44.8343 35.2038 45.4411C35.0537 46.1995 34.5431 47.441 33.9774 47.466C32.3242 47.6582 33.0574 45.3703 33.2844 44.2821C33.3855 43.8563 33.5539 43.325 33.2029 43.0488ZM41.3039 43.3512C41.2503 42.3884 41.5404 42.0388 41.7154 41.3111C41.892 40.8369 42.0135 40.4837 41.313 40.4523C40.2072 40.3924 40.222 41.323 40.0118 42.1174C39.9225 42.4318 39.765 43.2599 39.5108 43.4021C39.2719 43.5318 38.3127 43.4169 38.013 43.4558C37.7228 43.5379 37.4568 43.7915 37.3872 44.0517C37.2927 44.2811 37.3448 44.7229 37.6211 44.9068C38.0044 45.1442 39.0244 44.815 39.2927 45.2092C39.1521 46.0109 39.0709 46.6499 38.9317 47.1702C38.8915 47.4194 38.6132 48.46 38.5451 48.7062C38.4938 48.926 38.0616 50.0913 38.1218 50.3228C38.1987 50.528 38.6311 50.7001 38.9418 50.6905C39.6482 50.6663 39.8942 49.1295 40.0414 48.6664C40.1125 48.3923 40.3644 47.3349 40.4215 47.0593C40.4984 46.7296 40.7612 45.1665 41.0492 44.9715C41.3232 44.7751 42.4547 44.9925 42.9097 44.8151C43.2182 44.6927 43.4277 44.3065 43.3837 43.9218C43.3132 43.2527 41.6044 43.7066 41.3039 43.3512ZM45.5753 41.9842C45.1906 42.0283 44.814 42.3969 44.8118 42.819C44.8076 43.6632 46.3222 43.5831 46.3976 42.7323C46.4363 42.2296 46.0728 41.938 45.5753 41.9842ZM45.2012 44.338C44.527 44.3235 44.2377 45.0673 44.0656 45.7672C43.8576 46.6744 43.6269 47.6637 43.4146 48.6127C43.2879 49.1484 43.104 49.6921 43.3159 49.9537C43.6134 50.3369 44.5059 50.1492 44.7418 49.7798C44.9118 49.5021 44.952 48.718 45.0325 48.2197C45.1679 47.333 45.3906 46.554 45.6272 45.7764C45.7487 45.4232 45.9106 45.0883 45.8879 44.9029C45.8563 44.5336 45.399 44.3307 45.2012 44.338ZM49.1649 44.0226C48.7121 44.0454 48.4732 44.1752 48.1127 44.3907C47.5397 44.7527 47.454 44.8986 47.0811 45.3662C46.3733 46.2068 46.0519 47.7919 46.683 48.8858C47.0429 49.346 47.8036 49.8764 48.5064 50.0206C49.3454 50.2074 50.0108 50.038 50.5765 49.7455C51.5656 49.1738 52.3188 48.169 52.2812 47.053C52.4129 45.2649 51.2219 43.8728 49.1649 44.0226ZM47.853 47.5307C47.806 46.6389 48.6104 45.4143 49.3769 45.3541C50.3706 45.2755 51.0962 46.4076 50.7227 47.5508C50.5315 48.1642 49.8772 48.6303 49.4324 48.7103C48.4886 48.8504 47.8927 48.2247 47.853 47.5307ZM54.8748 47.3959C54.7889 46.4719 55.4591 44.7827 54.3233 44.8745C53.6697 44.9325 53.6075 45.9254 53.4963 46.7161C53.3506 47.7003 53.1221 48.535 52.9222 49.4994C52.7325 50.3663 52.4703 51.2537 53.4948 51.1503C53.878 51.1202 54.4648 49.9571 54.7454 49.5643C55.2363 48.912 55.1373 48.9157 55.9301 48.0699C56.2495 47.7094 56.5836 47.2095 57.0211 47.1992C57.0388 47.8345 56.9282 48.2171 56.7744 48.8766C56.6052 49.5486 56.458 50.2792 56.4281 50.9659C56.6957 51.5008 57.6659 51.3775 57.8966 50.9231C57.9684 50.7758 57.9478 50.4358 57.9742 50.1852C58.0949 49.1703 58.6098 47.6196 58.6273 46.6501C58.6323 46.2002 58.4637 45.6616 58.3069 45.5466C57.8019 45.1275 57.2194 45.4463 56.8296 45.6728C56.3181 45.9851 55.8815 46.3897 55.5268 46.8169C55.3488 47.0375 55.1503 47.1856 54.8748 47.3959ZM65.7961 49.4729C66.2372 49.294 66.7531 49.475 67.2924 49.4331C67.8039 49.3883 68.0038 48.4239 67.3992 48.1492C66.725 47.8672 66.4634 48.079 66.0369 47.8512C65.8522 47.4658 66.1978 45.7847 66.3252 45.3758C66.5362 44.7082 66.8811 43.4353 67.5355 43.504C67.9254 43.545 67.9687 44.0704 68.0647 44.3621C68.1608 44.6537 68.2422 45.0846 68.5053 45.1263C68.8153 45.2574 69.3004 45.1958 69.4542 44.8037C69.5934 44.5509 69.6021 43.9324 69.3807 43.3601C69.0823 42.5827 68.5099 42.0017 67.5272 42.1095C66.5167 42.2145 65.9255 42.8843 65.4039 43.829C64.9358 44.6667 64.7453 45.4068 64.5213 46.4672C64.4488 46.7552 64.4694 47.3627 64.3265 47.5166C64.1514 47.7093 64.3133 47.6419 63.922 47.6148C63.5586 47.5907 63.1328 47.7571 63.042 48.0854C62.9841 48.2342 62.908 48.4233 63.0809 48.6526C63.517 49.1911 63.5045 48.9083 64.1692 49.1471C64.2793 49.9751 63.8808 51.355 63.9967 52.1274C64.0738 52.6 65.0858 52.7486 65.3392 52.2122C65.6352 51.5394 65.5756 49.8298 65.7961 49.4729ZM71.5048 46.3706C71.0519 46.3934 70.813 46.5232 70.4525 46.7387C69.8795 47.1008 69.7938 47.2466 69.4209 47.7142C68.7132 48.5548 68.3917 50.1399 69.0228 51.2338C69.3827 51.694 70.1434 52.2244 70.8462 52.3687C71.6853 52.5554 72.3506 52.386 72.9163 52.0935C73.9055 51.5218 74.6586 50.517 74.6211 49.401C74.7527 47.6129 73.5617 46.2208 71.5048 46.3706ZM70.1929 49.8787C70.1458 48.9869 70.9503 47.7623 71.7167 47.7021C72.7104 47.6235 73.436 48.7556 73.0625 49.8988C72.8713 50.5122 72.217 50.9783 71.7722 51.0583C70.8284 51.1984 70.2326 50.5727 70.1929 49.8787ZM77.4457 47.0091C77.335 46.8567 77.1211 46.7498 76.9107 46.7417C76.156 46.6906 76.1311 47.1947 75.8975 48.2119C75.6537 49.3265 75.4143 51.2018 75.1969 52.3332C75.1244 52.6212 75.035 52.9356 75.0732 53.1085C75.1252 53.2829 75.4 53.4808 75.6074 53.5166C76.1336 53.6001 76.4011 53.6 76.5901 53.1413C76.8186 52.5741 76.97 50.9993 77.0806 50.3493C77.1055 50.1126 78.1196 49.5716 78.708 49.4645C78.9535 49.4059 79.5683 49.3156 79.868 49.2767C80.1537 49.2364 80.7026 48.9703 80.6776 48.4046C80.6497 48.1342 80.3345 47.9181 80.0451 47.8595C79.5512 47.7372 78.9569 47.9 78.5663 47.9997C78.2036 48.1023 77.6834 48.4981 77.347 48.3502C77.4231 47.8936 77.5491 47.4986 77.4457 47.0091ZM6.19365 61.2835C6.83341 61.4915 7.254 61.2401 7.399 60.6641C7.6663 59.5941 7.73127 58.0384 7.92085 56.6365C8.09729 55.6275 8.34992 54.4293 8.54614 53.366C8.71456 52.5672 9.18184 51.0678 8.48346 50.8818C8.268 50.7888 7.79976 50.824 7.68327 50.9948C7.2884 51.6712 7.40083 53.682 6.76922 54.0661C5.87813 53.9724 5.08672 54.0019 4.33712 54.3032C3.6586 54.5979 3.15891 55.0662 2.77282 55.6591C2.45706 56.1186 2.21902 56.91 2.33785 57.6545C2.45961 58.3712 3.12584 59.131 3.70334 59.5295C4.33508 59.9479 5.0774 59.9837 5.82562 60.2312C5.97589 60.5426 5.88951 61.0966 6.19365 61.2835ZM6.36303 57.2611C6.27589 57.6884 6.19616 58.5809 6.02473 58.8726C5.35424 58.957 4.38613 58.3907 4.03796 57.8192C3.4633 56.8578 4.28895 55.565 5.32952 55.5759C5.97585 55.5875 6.32757 55.4555 6.50861 55.742C6.57534 56.0447 6.45162 56.82 6.36303 57.2611ZM10.9488 52.422C10.5641 52.466 10.1875 52.8347 10.1854 53.2567C10.1811 54.1009 11.6958 54.0208 11.7711 53.17C11.8099 52.6673 11.4464 52.3757 10.9488 52.422ZM10.5747 54.7758C9.90058 54.7612 9.61124 55.505 9.43914 56.2049C9.23117 57.1121 9.0005 58.1014 8.78814 59.0504C8.66145 59.5861 8.4776 60.1299 8.68942 60.3915C8.987 60.7747 9.87951 60.5869 10.1154 60.2176C10.2854 59.9398 10.3256 59.1557 10.4061 58.6574C10.5415 57.7707 10.7642 56.9917 11.0007 56.2142C11.1223 55.8609 11.2842 55.526 11.2615 55.3406C11.2299 54.9713 10.7726 54.7684 10.5747 54.7758ZM14.636 54.4706C13.8753 54.4751 13.1543 54.6386 12.5886 55.1986C12.3674 55.4287 12.2334 56.034 12.2232 56.399C12.2035 56.9881 12.74 57.5091 13.1768 57.9069C13.5374 58.2263 14.4329 58.8132 14.2865 59.4031C13.3311 60.457 12.9022 59.3139 12.1167 59.5551C11.9716 59.5962 11.7884 59.7318 11.7474 59.8542C11.5475 60.5511 11.7234 60.7526 12.879 61.1415C13.3686 61.3056 14.1461 61.2747 14.5637 61.0511C15.1448 60.7462 15.6518 60.2082 15.7601 59.4454C15.8963 58.418 15.0805 57.741 14.5565 57.2354C14.4415 57.1248 13.7555 56.6867 13.8243 56.2998C13.899 55.8572 14.3577 55.7787 15.1015 56.068C15.3668 56.2226 15.9561 56.7772 16.258 56.5837C16.406 56.5148 16.7416 56.2685 16.7378 55.9021C16.7334 55.409 16.2269 55.0038 15.6934 54.7225C15.4267 54.5819 14.707 54.464 14.636 54.4706ZM22.2484 60.6059C22.0116 59.7786 21.3507 60.1737 20.5454 60.2017C19.4572 60.2422 18.8503 59.5871 18.6802 58.795C18.5225 58.0183 19.4897 57.1205 20.5053 57.1005C20.8856 57.0983 21.2469 57.277 21.7291 57.2432C22.1109 57.227 22.5072 56.8042 22.439 56.248C22.3649 55.7475 20.9477 55.5704 20.4963 55.5792C19.2857 55.5787 18.2394 56.1585 17.6115 57.1765C17.3134 57.7364 17.068 58.5974 17.1956 59.2584C17.5483 60.5905 18.4608 61.4185 19.8919 61.597C21.1839 61.761 22.4552 61.3174 22.2484 60.6059ZM26.0551 55.6708C25.6023 55.6936 25.3634 55.8233 25.0029 56.0388C24.4299 56.4009 24.3442 56.5468 23.9713 57.0143C23.2635 57.855 22.9421 59.4401 23.5732 60.534C23.9331 60.9942 24.6938 61.5246 25.3966 61.6688C26.2356 61.8556 26.901 61.6862 27.4667 61.3937C28.4558 60.822 29.209 59.8172 29.1715 58.7011C29.3031 56.9131 28.1121 55.521 26.0551 55.6708ZM24.7433 59.1789C24.6962 58.2871 25.5006 57.0625 26.2671 57.0023C27.2608 56.9237 27.9864 58.0557 27.6129 59.199C27.4217 59.8123 26.7674 60.2785 26.3226 60.3584C25.3788 60.4986 24.7829 59.8728 24.7433 59.1789ZM31.9177 60.8057C31.8934 60.0993 31.7723 58.9745 31.6769 58.2747C31.63 57.9178 31.5697 57.1513 31.4107 56.9235C31.1285 56.5278 30.4104 56.6635 30.1554 56.9464C30.0909 57.0241 29.9195 57.3158 30.0163 57.7342C30.0238 58.467 30.5795 60.4117 30.768 61.6985C30.8429 62.3257 30.8723 62.8497 31.2937 62.9925C31.9818 63.276 32.5994 62.3555 32.9445 61.885C34.0823 60.3012 34.5401 59.561 35.1167 58.7629C35.431 58.3173 35.8714 58.0117 35.7284 57.3632C35.6308 56.818 35.0731 56.6327 34.6386 56.8827C34.1301 57.1671 33.9053 57.8332 33.5206 58.4122C32.9865 59.074 32.473 60.0758 31.9177 60.8057ZM37.4562 61.5427C37.8021 61.4664 38.3905 61.3594 38.8353 61.2794C39.4948 61.1657 39.8355 61.0045 40.4855 60.8475C40.8746 60.7617 41.1889 60.3162 41.2005 59.9373C41.2269 59.6867 41.0905 59.1093 41.0106 58.9319C40.5597 57.4628 39.4604 56.939 38.0462 57.269C37.4717 57.3775 36.788 57.8547 36.388 58.4461C35.8781 59.0119 35.6327 59.873 35.7714 61.0982C36.0274 62.2794 36.3469 62.7212 37.4264 63.2992C38.097 63.7498 39.4805 63.7122 40.2448 63.2717C40.5019 63.1016 40.6169 62.6773 40.3443 62.3249C39.8488 61.949 39.38 62.6599 38.4676 62.3669C37.8681 62.1772 37.5193 62.0139 37.4562 61.5427ZM37.7328 58.9112C38.6846 58.2933 39.5141 58.4368 39.7649 59.533C39.6704 59.7624 39.2418 59.9567 38.9142 59.9926C38.4167 60.0389 37.5381 60.2281 37.2918 60.16C37.2068 59.8976 37.34 59.1655 37.7328 58.9112ZM44.0702 57.5783C43.9595 57.4259 43.7455 57.319 43.5352 57.311C42.7804 57.2598 42.7556 57.7639 42.522 58.7811C42.2782 59.8957 42.0388 61.771 41.8214 62.9024C41.7489 63.1904 41.6595 63.5048 41.6977 63.6778C41.7497 63.8522 42.0245 64.05 42.2319 64.0858C42.7581 64.1693 43.0256 64.1693 43.2145 63.7105C43.4431 63.1433 43.5945 61.5685 43.7051 60.9185C43.73 60.6818 44.7441 60.1408 45.3325 60.0337C45.5779 59.9751 46.1927 59.8848 46.4925 59.846C46.7782 59.8056 47.3271 59.5395 47.3021 58.9738C47.2742 58.7034 46.959 58.4873 46.6696 58.4287C46.1756 58.3064 45.5814 58.4692 45.1908 58.5689C44.8281 58.6716 44.3079 59.0673 43.9715 58.9194C44.0476 58.4628 44.1736 58.0678 44.0702 57.5783ZM52.7505 60.1095C53.2613 60.2055 53.9119 59.6404 54.9737 59.5831C55.2896 59.6585 55.6869 60.4322 55.289 60.8691C55.037 61.1241 53.8484 60.9147 53.1442 61.0519C52.7411 61.1362 52.2231 61.3774 52.0077 61.5518C51.6692 61.8259 51.256 62.2752 51.3315 63.0292C51.3397 63.3538 51.5874 63.6755 51.8146 63.9246C52.3584 64.6434 52.9587 64.9599 53.7465 65.3665C53.9729 65.4888 54.5335 65.6463 54.7746 65.6294C55.1132 65.6227 55.5279 65.1595 55.6546 64.8913C55.9564 64.1629 56.1761 63.4117 56.4141 62.6203C56.6002 61.9219 56.9144 60.9413 56.8549 60.0342C56.8196 59.2984 56.4164 58.5804 55.9342 58.3467C55.0775 58.0596 54.3646 58.2802 53.4406 58.6336C52.9745 58.7817 52.4176 58.9906 52.4287 59.5549C52.4442 59.8099 52.4962 59.9843 52.7505 60.1095ZM54.0618 62.2322C54.3278 62.2461 54.8642 62.2321 55.0291 62.4043C54.9779 62.8916 54.8337 63.8619 54.3904 63.9279C53.7323 63.7602 52.7327 63.3595 52.8037 62.5505C53.0418 62.294 53.5298 62.2045 54.0618 62.2322ZM65.2533 59.9455C65.1996 58.9827 65.4898 58.6331 65.6648 57.9054C65.8413 57.4312 65.9629 57.078 65.2623 57.0466C64.1565 56.9867 64.1713 57.9173 63.9612 58.7117C63.8718 59.0261 63.7144 59.8542 63.4601 59.9964C63.2213 60.1261 62.262 60.0112 61.9623 60.0501C61.6721 60.1322 61.4062 60.3858 61.3366 60.646C61.2421 60.8754 61.2942 61.3172 61.5705 61.5011C61.9538 61.7385 62.9738 61.4093 63.242 61.8035C63.1015 62.6052 63.0202 63.2442 62.8811 63.7645C62.8408 64.0137 62.5625 65.0543 62.4944 65.3005C62.4432 65.5203 62.011 66.6856 62.0711 66.9171C62.1481 67.1223 62.5805 67.2944 62.8912 67.2848C63.5976 67.2605 63.8436 65.7238 63.9908 65.2607C64.0618 64.9866 64.3137 63.9292 64.3708 63.6536C64.4477 63.3238 64.7106 61.7608 64.9985 61.5658C65.2725 61.3694 66.404 61.5868 66.8591 61.4094C67.1675 61.287 67.3771 60.9008 67.333 60.5161C67.2626 59.847 65.5538 60.3009 65.2533 59.9455ZM69.7821 60.2808C69.6714 60.1284 69.4574 60.0214 69.2471 60.0134C68.4923 59.9622 68.4675 60.4664 68.2339 61.4835C67.9901 62.5981 67.7507 64.4734 67.5333 65.6049C67.4608 65.8929 67.3714 66.2073 67.4095 66.3802C67.4616 66.5546 67.7364 66.7524 67.9438 66.7883C68.47 66.8717 68.7374 66.8717 68.9264 66.4129C69.155 65.8457 69.3064 64.2709 69.417 63.6209C69.4418 63.3842 70.4559 62.8432 71.0444 62.7362C71.2898 62.6775 71.9046 62.5873 72.2043 62.5484C72.4901 62.508 73.0389 62.2419 73.0139 61.6762C72.9861 61.4058 72.6709 61.1897 72.3815 61.1311C71.8875 61.0088 71.2933 61.1716 70.9027 61.2713C70.54 61.374 70.0198 61.7698 69.6834 61.6218C69.7595 61.1653 69.8855 60.7703 69.7821 60.2808ZM74.7663 65.4642C75.1122 65.3879 75.7006 65.2808 76.1454 65.2009C76.8049 65.0872 77.1456 64.9259 77.7956 64.769C78.1847 64.6832 78.499 64.2376 78.5106 63.8588C78.537 63.6081 78.4006 63.0307 78.3207 62.8534C77.8698 61.3842 76.7705 60.8604 75.3563 61.1904C74.7818 61.299 74.0982 61.7761 73.6981 62.3675C73.1882 62.9333 72.9429 63.7944 73.0816 65.0196C73.3375 66.2008 73.657 66.6427 74.7365 67.2207C75.4071 67.6712 76.7906 67.6336 77.5549 67.1931C77.812 67.0231 77.927 66.5988 77.6544 66.2463C77.1589 65.8705 76.6901 66.5814 75.7777 66.2884C75.1782 66.0987 74.8294 65.9353 74.7663 65.4642ZM75.0429 62.8327C75.9947 62.2148 76.8242 62.3583 77.075 63.4545C76.9805 63.6839 76.5519 63.8781 76.2243 63.9141C75.7268 63.9603 74.8482 64.1495 74.602 64.0814C74.5169 63.8191 74.6502 63.087 75.0429 62.8327ZM81.1492 64.2346C81.0633 63.3106 81.7336 61.6214 80.5977 61.7132C79.9441 61.7712 79.882 62.7641 79.7707 63.5548C79.625 64.539 79.3965 65.3737 79.1966 66.338C79.007 67.205 78.7448 68.0924 79.7692 67.9889C80.1524 67.9588 80.7392 66.7958 81.0198 66.403C81.5107 65.7507 81.4118 65.7544 82.2045 64.9086C82.524 64.548 82.858 64.0482 83.2955 64.0379C83.3132 64.6732 83.2026 65.0558 83.0488 65.7153C82.8797 66.3873 82.7325 67.1179 82.7025 67.8045C82.9701 68.3394 83.9403 68.2162 84.1711 67.7618C84.2428 67.6145 84.2223 67.2745 84.2486 67.0239C84.3694 66.0089 84.8843 64.4583 84.9017 63.4888C84.9068 63.0388 84.7381 62.5003 84.5813 62.3852C84.0763 61.9662 83.4938 62.285 83.104 62.5115C82.5926 62.8238 82.1559 63.2283 81.8013 63.6556C81.6233 63.8762 81.4247 64.0243 81.1492 64.2346ZM89.38 70.0267C90.0197 70.2347 90.4403 69.9833 90.5853 69.4073C90.8526 68.3374 90.9176 66.7816 91.1072 65.3798C91.2836 64.3707 91.5362 63.1725 91.7325 62.1092C91.9009 61.3105 92.3682 59.8111 91.6698 59.6251C91.4543 59.532 90.9861 59.5673 90.8696 59.738C90.4747 60.4145 90.5872 62.4252 89.9555 62.8093C89.0645 62.7157 88.273 62.7451 87.5234 63.0464C86.8449 63.3411 86.3452 63.8094 85.9591 64.4023C85.6434 64.8618 85.4053 65.6533 85.5242 66.3978C85.6459 67.1144 86.3122 67.8742 86.8897 68.2728C87.5214 68.6911 88.2637 68.7269 89.0119 68.9745C89.1622 69.2859 89.0758 69.8399 89.38 70.0267ZM89.5493 66.0044C89.4622 66.4316 89.3825 67.3242 89.211 67.6158C88.5406 67.7002 87.5724 67.1339 87.2243 66.5624C86.6496 65.6011 87.4753 64.3083 88.5158 64.3191C89.1622 64.3307 89.5139 64.1988 89.6949 64.4853C89.7617 64.7879 89.6379 65.5632 89.5493 66.0044Z" fill="black"/>
<defs>
<clipPath id="clip0_2_237">
<rect width="28.3944" height="34.4457" fill="white" transform="translate(52.001 27.0134) rotate(-72.0565)"/>
</clipPath>
</defs>
</svg>
