<svg width="39" height="20" viewBox="0 0 39 20" fill="none" xmlns="http://www.w3.org/2000/svg">
<path d="M38.8159 -9.72063e-05C39.266 1.65006 38.5437 2.92055 37.7263 4.00461C36.5693 5.49744 35.2398 6.88257 33.8153 8.08129C27.1085 13.4313 19.3607 15.4355 10.8876 14.5592C8.7341 14.3287 6.57808 13.7862 4.18885 13.3237C4.65933 15.5511 6.45045 17.2205 7.06162 19.4934C6.04764 19.4244 5.59001 18.7575 5.19577 18.2148C3.5871 15.982 1.99363 13.7022 0.462271 11.3907C-0.264117 10.2736 -0.160253 9.63283 0.957592 9.06107C3.27058 7.83882 5.73069 7.44235 8.27582 7.9034C8.36962 7.93378 8.4647 8.12019 8.63838 8.38393C7.46871 10.2358 5.04136 8.931 3.54084 10.3645C6.53354 12.1636 9.81126 12.6025 13.0864 12.7294C16.5175 12.8548 19.899 12.653 23.1804 11.6406C26.3997 10.6599 29.2551 9.04268 32.0458 7.14514C34.8683 5.30974 37.0468 2.90268 38.8159 -9.72063e-05Z" fill="white"/>
</svg>
